<?xml version="1.0" encoding="utf-8"?>
<!-- Generator: Adobe Illustrator 27.8.0, SVG Export Plug-In . SVG Version: 6.00 Build 0)  -->
<svg version="1.1" id="Layer_1" xmlns="http://www.w3.org/2000/svg" xmlns:xlink="http://www.w3.org/1999/xlink" x="0px" y="0px"
	 width="280px" height="280px" viewBox="0 0 280 280" enable-background="new 0 0 280 280" xml:space="preserve">
<g>
	<path fill="#356597" d="M8.1,140.1C8,67.6,67.2,8.1,139.4,8.1c73.4,0,132.4,58.7,132.5,131.8c0.1,72.9-59,132-131.8,132
		C67.3,271.9,8.2,212.9,8.1,140.1z M158.1,70.8c-11.7,0-23.2,0.1-34.6-0.1c-2.1,0-3,0.5-3.8,2.5c-15.1,38.8-30.4,77.5-45.6,116.2
		c-2.5,6.5-5.1,13-7.7,19.7c13.4,0,26.5,0,39.6-0.1c0.6,0,1.5-1,1.8-1.7c2.2-6.2,4.3-12.4,6.4-18.7c0.5-1.5,1.1-2,2.8-2
		c15,0.1,30.1,0.1,45.1,0c1.7,0,2.2,0.6,2.7,2.1c2,6.2,4.2,12.3,6.2,18.4c0.5,1.5,1.2,2,2.8,2c7.3-0.1,14.6,0,21.9,0
		c5.9,0,11.7,0,18,0C195.1,162.9,176.6,116.9,158.1,70.8z"/>
	<path fill="#356597" d="M124.3,156.8c5-14.1,9.9-28.1,15.1-42.8c5.2,14.7,10.2,28.6,15.3,42.8C144.5,156.8,134.6,156.8,124.3,156.8
		z"/>
</g>
</svg>
