<?xml version="1.0" encoding="utf-8"?>
<!-- Generator: Adobe Illustrator 27.8.0, SVG Export Plug-In . SVG Version: 6.00 Build 0)  -->
<svg version="1.1" id="Layer_1" xmlns="http://www.w3.org/2000/svg" xmlns:xlink="http://www.w3.org/1999/xlink" x="0px" y="0px"
	 width="100px" height="100px" viewBox="0 0 100 100" style="enable-background:new 0 0 100 100;" xml:space="preserve">
<style type="text/css">
	.st0{fill:#FFFFFF;}
	.st1{fill:#337BCC;}
</style>
<g>
	<path class="st0" d="M26,74.8c-0.8-0.5-0.9-0.8-0.7-1.7c1-3.9,1.9-7.7,2.9-11.6c0.1-0.3,0.2-0.6,0.5-0.8c8.9-9,17.9-17.9,26.9-26.9
		c0.1-0.1,0.2-0.2,0.3-0.3c3.5,3.5,7.1,7.1,10.7,10.7c-0.1,0.1-0.3,0.2-0.4,0.3c-8.9,8.9-17.8,17.8-26.7,26.6
		c-0.3,0.3-0.7,0.5-1.1,0.6c-3.8,1-7.7,1.9-11.5,2.9c-0.1,0-0.2,0.1-0.3,0.1C26.3,74.8,26.1,74.8,26,74.8z"/>
	<path class="st0" d="M74.8,34.3c-0.1,0.3-0.1,0.5-0.2,0.8c-0.3,0.7-0.6,1.4-1.1,1.9c-1.3,1.4-2.7,2.7-4,4c-3.5-3.5-7-7-10.5-10.5
		c1.3-1.3,2.6-2.8,4-4c1.9-1.7,5-1.6,6.9,0.1c1.3,1.2,2.5,2.4,3.7,3.7c0.7,0.8,1,1.8,1.3,2.8C74.8,33.4,74.8,33.8,74.8,34.3z"/>
</g>
<g>
	<path class="st1" d="M97.4,50.2C97.5,76,76.4,97.4,50.6,97.5c-26.5,0.1-47.9-21-48-47.2C2.5,24.2,23.8,2.6,49.8,2.5
		C76.3,2.4,97.3,23.4,97.4,50.2z M61.1,46c-2.6,0-4.9,0-7.1,0c-7.8,0-15.6,0-23.4,0c-2,0-3.5,1-4.1,2.8c-0.9,2.7,1.1,5.3,4,5.3
		c9.8,0,19.5,0,29.3,0c0.4,0,0.8,0,1.5,0c-0.4,0.4-0.7,0.7-0.9,1c-1.9,1.9-3.8,3.8-5.6,5.8c-1.5,1.6-1.3,3.6,0.2,5
		c1.5,1.4,3.5,1.5,5,0c4.3-4.4,8.7-8.8,13-13.3c1.5-1.5,1.4-3.6,0-5.1C68.4,43,64,38.5,59.5,34.2c-0.6-0.6-1.7-1-2.6-1
		c-1.6,0-2.7,1-3.3,2.5c-0.6,1.4-0.2,2.6,0.9,3.7C56.6,41.5,58.8,43.6,61.1,46z"/>
</g>
</svg>
