<?xml version="1.0" encoding="utf-8"?>
<!-- Generator: Adobe Illustrator 27.8.0, SVG Export Plug-In . SVG Version: 6.00 Build 0)  -->
<svg version="1.1" id="Layer_1" xmlns="http://www.w3.org/2000/svg" xmlns:xlink="http://www.w3.org/1999/xlink" x="0px" y="0px"
	 width="100px" height="80px" viewBox="0 0 100 80" style="enable-background:new 0 0 100 80;" xml:space="preserve">
<style type="text/css">
	.st0{fill:#356597;}
</style>
<g>
	<path class="st0" d="M50,19.6c-12.8,0-25.5,0-38.3,0c-4.1,0-7.1-3.1-7-7.1c0.2-3.4,3-6.3,6.4-6.5c0.2,0,0.4,0,0.6,0
		c25.5,0,51.1,0,76.6,0c3.2,0,5.8,1.9,6.7,4.8c1.3,4.4-1.9,8.7-6.5,8.7c-5.2,0-10.3,0-15.5,0C65.4,19.6,57.7,19.6,50,19.6z"/>
	<path class="st0" d="M50,46.8c-12.7,0-25.5,0-38.2,0c-3.4,0-6-2-6.9-5.2c-1-4,2-8.1,6.2-8.4c0.2,0,0.4,0,0.6,0c25.5,0,51,0,76.5,0
		c3.4,0,6,1.9,6.8,5c1.2,4.2-1.9,8.5-6.3,8.6c-2.8,0.1-5.6,0-8.4,0C70.2,46.8,60.1,46.8,50,46.8z"/>
	<path class="st0" d="M50,74c-12.8,0-25.5,0-38.3,0c-4.1,0-7.1-3.1-7-7.1c0.1-3.4,2.9-6.2,6.3-6.4c0.2,0,0.4,0,0.6,0
		c25.5,0,51.1,0,76.6,0c3.2,0,5.8,1.9,6.7,4.8c1.3,4.4-1.9,8.7-6.5,8.7c-5.2,0-10.3,0-15.5,0C65.4,74,57.7,74,50,74z"/>
</g>
</svg>
