<?xml version="1.0" encoding="utf-8"?>
<!-- Generator: Adobe Illustrator 27.8.0, SVG Export Plug-In . SVG Version: 6.00 Build 0)  -->
<svg version="1.1" id="Layer_1" xmlns="http://www.w3.org/2000/svg" xmlns:xlink="http://www.w3.org/1999/xlink" x="0px" y="0px"
	 width="100px" height="100px" viewBox="0 0 100 100" style="enable-background:new 0 0 100 100;" xml:space="preserve">
<style type="text/css">
	.st0{fill:#FFFFFF;}
	.st1{fill:#337BCC;}
</style>
<g>
	<path class="st0" d="M26,74.8c-0.8-0.5-0.9-0.8-0.7-1.7c1-3.9,1.9-7.7,2.9-11.6c0.1-0.3,0.2-0.6,0.5-0.8c8.9-9,17.9-17.9,26.9-26.9
		c0.1-0.1,0.2-0.2,0.3-0.3c3.5,3.5,7.1,7.1,10.7,10.7c-0.1,0.1-0.3,0.2-0.4,0.3c-8.9,8.9-17.8,17.8-26.7,26.6
		c-0.3,0.3-0.7,0.5-1.1,0.6c-3.8,1-7.7,1.9-11.5,2.9c-0.1,0-0.2,0.1-0.3,0.1C26.3,74.8,26.1,74.8,26,74.8z"/>
	<path class="st0" d="M74.8,34.3c-0.1,0.3-0.1,0.5-0.2,0.8c-0.3,0.7-0.6,1.4-1.1,1.9c-1.3,1.4-2.7,2.7-4,4c-3.5-3.5-7-7-10.5-10.5
		c1.3-1.3,2.6-2.8,4-4c1.9-1.7,5-1.6,6.9,0.1c1.3,1.2,2.5,2.4,3.7,3.7c0.7,0.8,1,1.8,1.3,2.8C74.8,33.4,74.8,33.8,74.8,34.3z"/>
</g>
<g>
	<path class="st1" d="M46.3,2.2c2.4,0,4.8,0,7.3,0c0.2,0.1,0.3,0.2,0.5,0.2C61.4,3,68.2,5.2,74.5,9c12.7,7.9,20.4,19.2,22.8,34
		c0.2,1.1,0.4,2.3,0.5,3.4c0,2.4,0,4.8,0,7.3c-0.1,0.9-0.3,1.8-0.4,2.7C96,66,92.1,74.5,85.6,81.7C78,90.3,68.4,95.5,57.1,97.2
		c-1.2,0.2-2.4,0.4-3.5,0.5c-2.4,0-4.8,0-7.3,0c-0.2-0.1-0.4-0.2-0.7-0.2c-1.8-0.3-3.6-0.5-5.4-0.8c-9.1-1.9-17-6.2-23.7-12.8
		C9,76.5,4.4,67.6,2.8,57.1c-0.2-1.1-0.4-2.2-0.5-3.3c0-2.5,0-5.1,0-7.6c0.2-1.3,0.4-2.5,0.6-3.8c1.7-9.8,5.9-18.4,12.9-25.5
		c7.5-7.7,16.5-12.3,27.1-14C44,2.6,45.2,2.4,46.3,2.2z M50.1,55.6c0.3,0.4,0.5,0.7,0.8,1c3.6,3.6,7.2,7.3,10.9,10.9
		c1.3,1.3,3,1.7,4.6,1c2.6-1.1,3.2-4.5,1.1-6.6c-3.7-3.7-7.4-7.4-11.1-11.1c-0.2-0.2-0.5-0.5-0.7-0.8c1.8-1.8,3.5-3.5,5.2-5.2
		c2.2-2.2,4.5-4.4,6.7-6.7c1.7-1.8,1.6-4.3-0.1-5.9c-1.6-1.4-3.9-1.3-5.5,0.3c-3.7,3.7-7.4,7.4-11.1,11.1c-0.2,0.2-0.5,0.5-0.9,0.8
		c-0.3-0.3-0.5-0.6-0.7-0.8c-3.6-3.7-7.3-7.3-10.9-10.9c-1.4-1.4-3.2-1.8-4.8-1c-2.5,1.2-3,4.4-1,6.5c3.7,3.7,7.4,7.4,11.1,11.1
		c0.2,0.2,0.5,0.5,0.7,0.8c-0.3,0.3-0.5,0.5-0.7,0.8c-3.7,3.7-7.4,7.4-11.1,11.1c-2,2.1-1.5,5.3,1,6.5c1.6,0.8,3.3,0.4,4.8-1
		c3.7-3.6,7.3-7.3,10.9-10.9C49.5,56.2,49.7,56,50.1,55.6z"/>
</g>
</svg>
