<?xml version="1.0" encoding="utf-8"?>
<!-- Generator: Adobe Illustrator 27.8.0, SVG Export Plug-In . SVG Version: 6.00 Build 0)  -->
<svg version="1.1" id="Layer_1" xmlns="http://www.w3.org/2000/svg" xmlns:xlink="http://www.w3.org/1999/xlink" x="0px" y="0px"
	 width="100px" height="101px" viewBox="0 0 100 101" enable-background="new 0 0 100 101" xml:space="preserve">
<g>
	<path fill="#FFFFFF" d="M26,75.3c-0.8-0.5-0.9-0.8-0.7-1.7c1-3.9,1.9-7.7,2.9-11.6c0.1-0.3,0.2-0.6,0.5-0.8
		c8.9-9,17.9-17.9,26.9-26.9c0.1-0.1,0.2-0.2,0.3-0.3c3.5,3.5,7.1,7.1,10.7,10.7c-0.1,0.1-0.3,0.2-0.4,0.3
		c-8.9,8.9-17.8,17.8-26.7,26.6c-0.3,0.3-0.7,0.5-1.1,0.6c-3.8,1-7.7,1.9-11.5,2.9c-0.1,0-0.2,0.1-0.3,0.1
		C26.3,75.3,26.1,75.3,26,75.3z"/>
	<path fill="#FFFFFF" d="M74.8,34.8c-0.1,0.3-0.1,0.5-0.2,0.8c-0.3,0.7-0.6,1.4-1.1,1.9c-1.3,1.4-2.7,2.7-4,4C66,38,62.5,34.5,59,31
		c1.3-1.3,2.6-2.8,4-4c1.9-1.7,5-1.6,6.9,0.1c1.3,1.2,2.5,2.4,3.7,3.7c0.7,0.8,1,1.8,1.3,2.8C74.8,33.9,74.8,34.3,74.8,34.8z"/>
</g>
<g>
	<path fill="#FFFFFF" d="M4,17.9c0-1,0-2,0-3.1c0.1-0.2,0.2-0.3,0.3-0.5c0.4-1.5,1.2-2.7,2.3-3.8c1.1-1.1,2.2-2.2,3.4-3.4
		c3.5-3.5,8.3-3.5,11.8,0c9.2,9.1,18.3,18.3,27.4,27.4c0.2,0.2,0.5,0.5,0.9,0.8c0.5-0.5,0.9-1.1,1.4-1.5C60.4,25,69.3,16.1,78.2,7.2
		c3.5-3.5,8.4-3.5,11.9,0c0.8,0.8,1.7,1.6,2.5,2.5c0.7,0.8,1.5,1.5,2.1,2.4c2.2,3.3,1.6,7.3-1.3,10.3C84.2,31.5,75.1,40.6,66,49.8
		c-0.2,0.2-0.6,0.4-0.9,0.6c0.4,0.4,0.6,0.7,0.9,0.9c9,9,18.1,18.1,27.1,27.1c0.3,0.3,0.7,0.7,1,1c2.6,3.1,2.6,7.6-0.1,10.6
		c-1.4,1.5-3,3-4.4,4.5c-2.2,2.3-6.7,2.5-9.1,1.1c-0.9-0.5-1.7-1.1-2.4-1.9c-9.1-9.1-18.2-18.1-27.2-27.2c-0.2-0.2-0.4-0.6-0.6-0.9
		c-0.1,0-0.3,0-0.4,0c-0.2,0.3-0.4,0.6-0.6,0.9C40,75.7,30.8,84.8,21.8,94c-3.1,3.1-8.9,3.3-11.8,0c-1.1-1.2-2.3-2.3-3.4-3.4
		c-1.1-1.1-1.9-2.4-2.3-3.9c-0.1-0.2-0.2-0.4-0.2-0.5c0-1,0-1.9,0-2.9c0.7-3,3-4.9,5-6.9c8.3-8.3,16.7-16.7,25-25
		c0.2-0.2,0.6-0.4,0.9-0.5c-0.4-0.6-0.7-0.8-1-1.1c-9.1-9.1-18.2-18.2-27.3-27.2c-1.2-1.2-2.1-2.6-2.5-4.3C4.2,18.1,4.1,18,4,17.9z"
		/>
</g>
</svg>
