<?xml version="1.0" encoding="utf-8"?>
<!-- Generator: Adobe Illustrator 27.8.0, SVG Export Plug-In . SVG Version: 6.00 Build 0)  -->
<svg version="1.1" id="Layer_1" xmlns="http://www.w3.org/2000/svg" xmlns:xlink="http://www.w3.org/1999/xlink" x="0px" y="0px"
	 width="100px" height="100px" viewBox="0 0 100 100" style="enable-background:new 0 0 100 100;" xml:space="preserve">
<style type="text/css">
	.st0{fill:#337BCC;}
	.st1{fill:#FFFFFF;}
</style>
<circle class="st0" cx="50" cy="50" r="49"/>
<g>
	<path class="st1" d="M35.4,43.4c0.1-0.1,0.1-0.2,0.1-0.2c0.4-1.6,1.8-2.8,3.5-2.8c3.2,0,6.5,0,9.7,0c0.7,0,1.3,0.5,1.3,1.2
		c0,0.7-0.5,1.2-1.3,1.2c-3.2,0-6.3,0-9.5,0c-0.9,0-1.4,0.5-1.4,1.4c0,5.6,0,11.1,0,16.7c0,0.9,0.5,1.4,1.3,1.4c5.6,0,11.2,0,16.8,0
		c0.9,0,1.3-0.5,1.3-1.4c0-3.2,0-6.3,0-9.5c0-0.9,0.8-1.5,1.6-1.2c0.5,0.2,0.8,0.6,0.8,1.2c0,1,0,2,0,3c0,2.1,0,4.2,0,6.3
		c0,2-0.9,3.2-2.8,3.9c0,0,0,0,0,0c-6.2,0-12.5,0-18.7,0c0-0.1-0.1-0.1-0.2-0.1c-1.3-0.4-2.2-1.3-2.5-2.7c0-0.1,0-0.2-0.1-0.2
		C35.4,55.5,35.4,49.4,35.4,43.4z"/>
	<path class="st1" d="M64.6,39c-0.1,0.1-0.1,0.2-0.1,0.3c-0.1,0.5-0.4,0.9-0.8,1.3c-0.5,0.5-1,1-1.5,1.6c-0.1,0.1-0.2,0.1-0.3,0
		c-1.3-1.3-2.7-2.7-4-4c-0.1-0.1-0.1-0.2,0-0.3c0.5-0.5,1-1,1.6-1.5c0.9-0.8,1.9-1.1,3-0.8c1.1,0.3,1.8,1.1,2.1,2.3
		c0,0,0,0.1,0.1,0.1C64.6,38.4,64.6,38.7,64.6,39z"/>
	<path class="st1" d="M46.4,54.3c-0.5,0-0.7-0.3-0.6-0.8c0.1-0.5,0.2-1.1,0.3-1.6c0.2-0.8,0.3-1.7,0.5-2.5c0-0.2,0.1-0.3,0.2-0.5
		c3.1-3.1,6.3-6.3,9.4-9.4c0.1-0.1,0.2-0.1,0.3,0c1.3,1.3,2.7,2.7,4,4c0.1,0.1,0.1,0.2,0,0.3c-3.1,3.1-6.2,6.2-9.4,9.4
		c-0.3,0.3-0.6,0.3-0.9,0.4c-1.2,0.3-2.5,0.5-3.7,0.7C46.5,54.2,46.5,54.2,46.4,54.3z"/>
</g>
</svg>
