<?xml version="1.0" encoding="utf-8"?>
<!-- Generator: Adobe Illustrator 27.8.0, SVG Export Plug-In . SVG Version: 6.00 Build 0)  -->
<svg version="1.1" id="Layer_1" xmlns="http://www.w3.org/2000/svg" xmlns:xlink="http://www.w3.org/1999/xlink" x="0px" y="0px"
	 width="420px" height="130px" viewBox="0 0 420 130" enable-background="new 0 0 420 130" xml:space="preserve">
<path fill="#24558D" d="M389.5,65.3c2.5,0.8,4.7,1.6,6.6,3.1c3.5,2.9,5.4,6.7,5.4,11.3c0,6.7,0.1,13.5,0,20.2
	c-0.1,9.9-8,18.3-18,18.5c-18.6,0.2-37.1,0.1-55.7,0.2c-2.3,0-1.7-1.4-1.7-2.6c0-30,0-60,0-89.9c0-4.1,0.1-8.2,0-12.2
	c0-1.4,0.4-1.8,1.8-1.8c18.4,0,36.8-0.1,55.2,0.1c10.2,0.1,18.1,8.1,18.4,18.3c0.2,7.2,0.2,14.3,0,21.5
	C401.3,58.3,397.2,62.9,389.5,65.3z M361.7,94.2C361.7,94.2,361.7,94.2,361.7,94.2c3.4,0,6.8,0.1,10.2-0.1c3.3-0.1,5-2,5.1-5.3
	c0-1.9,0-3.8,0-5.7c-0.1-3.7-1.8-5.5-5.6-5.6c-6.4-0.1-12.8,0-19.2-0.1c-1.5,0-1.8,0.5-1.8,1.9c0.1,4.3,0.1,8.7,0,13
	c0,1.7,0.7,1.9,2.1,1.9C355.6,94.2,358.7,94.2,361.7,94.2z M362,53.1C362,53.1,362,53.1,362,53.1c3.4,0,6.8,0.1,10.2,0
	c2.8-0.1,4.7-2,4.8-4.7c0.1-2.2,0.1-4.5,0-6.7c-0.1-3-2.1-5-5.1-5c-6.7-0.1-13.3,0-20-0.1c-1.2,0-1.5,0.4-1.5,1.6
	c0.1,4.5,0.1,9,0,13.5c0,1.2,0.4,1.6,1.6,1.6C355.4,53,358.7,53.1,362,53.1z"/>
<path fill="#24558D" d="M183.8,65.3c0-16.9,0-33.8-0.1-50.7c0-2.1,0.6-2.6,2.6-2.6c17.6,0.1,35.2,0,52.7,0.1
	c11.9,0,19.9,7.8,20,19.8c0.1,7.6,0,15.2,0,22.7c0,14.5-0.2,29,0.1,43.5c0.2,12.3-9,20.8-20.7,20.6c-17.3-0.3-34.7-0.1-52,0
	c-2.4,0-2.8-0.7-2.8-2.9C183.9,98.9,183.8,82.1,183.8,65.3z M208.1,65.5c0,8.8,0,17.6,0,26.5c0,1.7,0.4,2.3,2.2,2.3
	c6.2-0.1,12.3,0,18.5-0.1c4,0,6.1-2.1,6.1-6c0-15.3,0-30.6,0-46c0-3.9-2-5.8-5.9-5.8c-6.2,0-12.3,0.1-18.5-0.1
	c-1.9,0-2.4,0.5-2.4,2.3C208.2,47.7,208.1,56.6,208.1,65.5z"/>
<path fill="#24558D" d="M137.5,65.2c0-16.9,0-33.8,0-50.7c0-1.8,0.3-2.6,2.4-2.5c6.7,0.2,13.3,0.1,20,0c1.6,0,2.1,0.3,2.1,2
	c-0.1,34.2-0.1,68.3,0,102.5c0,1.9-0.7,2.2-2.3,2.1c-6.6-0.1-13.2-0.1-19.7,0c-1.9,0-2.5-0.5-2.5-2.5
	C137.5,99.2,137.5,82.2,137.5,65.2z"/>
<path fill="#24558D" d="M283.5,82.5c0-2.6,0.1-5.2,0-7.7c0-1.4,0.3-1.9,1.8-1.9c5.1,0.1,10.2,0.1,15.2,0c1.3,0,1.8,0.3,1.7,1.7
	c-0.1,5.3-0.1,10.7,0,16c0,1.5-0.6,1.8-1.9,1.8c-5-0.1-10-0.1-15,0c-1.4,0-1.9-0.4-1.9-1.8C283.5,87.8,283.5,85.2,283.5,82.5z"/>
<path fill="#24558D" d="M283.5,52.3c0-2.7,0.1-5.3,0-8c0-1.3,0.3-1.8,1.7-1.7c5.2,0.1,10.3,0.1,15.5,0c1.2,0,1.6,0.4,1.6,1.6
	c0,5.4-0.1,10.8,0,16.2c0,1.4-0.6,1.6-1.8,1.6c-5.1,0-10.1-0.1-15.2,0c-1.3,0-1.7-0.4-1.7-1.7C283.5,57.6,283.5,54.9,283.5,52.3z"/>
<path fill="#356597" stroke="#356597" stroke-miterlimit="10" d="M32.5,61.5C32.2,46.1,45.1,32.1,58,30.8c9.4-1,16.9,2.5,23.1,9.3
	c12.1,13.5,11,32.4-2.6,45.1c-1.5,1.4-2.4,2.6-2.1,4.7c0.2,1.1-0.2,1.9-1.5,2.1c-8.9,1.3-17.8,2.7-26.6,4.2c-1.6,0.3-2-0.3-1.9-1.7
	c0.6-4.8-1.4-8.2-4.9-11.7C35.8,77,32.6,69.8,32.5,61.5z M34,65.3c0.1,4.6,3.5,11.6,9.3,17.3c3.1,3,5.1,5.9,4.5,10.3
	c-0.2,1.3,0.4,1.8,1.7,1.6c8-1.3,16.1-2.6,24.2-3.9c0.9-0.1,1.5-0.4,1.3-1.4c-0.5-2.2,0.9-3.4,2.4-4.8C92,70.8,91.5,50,76.2,37.5
	c-6.7-5.4-14.3-6.9-22.5-4.2C42.3,37,33.9,49.1,34,65.3z"/>
<path fill="#356597" stroke="#356597" stroke-miterlimit="10" d="M62.1,123c-1.2,0-2.3,0-3.5,0c-3.8,0-3.9-0.1-4.1-3.7
	c0-1-0.4-1.4-1.2-1.9c-1.7-0.9-3.1-2.2-4.2-3.8c-0.7-0.9-0.9-1.6,0.7-1.8c8.3-1.2,16.6-2.5,24.9-3.7c1.6-0.2,2.1,0.1,1.4,1.9
	c-0.9,2.4-2.2,4.5-4.2,6c-1.4,1.1-2,2.3-1.7,4c0.4,2.4-1,3.1-3,3.1C65.4,123,63.7,123,62.1,123z M73.9,109.9
	c-7.7,0.8-15.3,2.2-23.1,3.4c4,4.7,12.4,6.3,17.4,3.5c2.7-1.5,5-3.5,5.9-6.6c0.1-0.1,0.2-0.2,0.2-0.3
	C74.2,109.6,74,109.6,73.9,109.9z M61.9,122.1c2.4-0.1,4.1-0.2,5.8-0.7c1.4-0.4,1-1.6,0.8-2.5c-0.2-1-1-0.4-1.6-0.2
	c-3.1,0.9-6.2,0.9-9.3,0.3c-0.6-0.1-1.6-0.7-1.6,0.7c0,0.9,0,1.6,1.2,1.8C58.9,121.7,60.7,122,61.9,122.1z"/>
<path fill="#356597" stroke="#356597" stroke-miterlimit="10" d="M76.7,95.9c0.6,2-0.3,2.6-2.2,2.8c-8.8,1.3-17.6,2.7-26.3,4.1
	c-1.1,0.2-1.7,0-1.8-1.3c-0.3-3.4-0.2-3.7,3.2-4.2c8.1-1.3,16.3-2.5,24.4-3.9C76.2,93.1,77.4,93.3,76.7,95.9z M49.2,101.1
	c8.3-1.3,16.6-2.6,24.8-3.9c0.8-0.1,1.4-0.4,1.3-1.4c-0.1-1.3-1-0.9-1.7-0.8c-3.2,0.5-6.4,1-9.6,1.5c-5,0.8-10,1.6-15,2.4
	c-1,0.1-1.3,0.6-1.2,1.5C48,101.2,48.6,101.1,49.2,101.1z"/>
<path fill="#356597" stroke="#356597" stroke-miterlimit="10" d="M76.6,102.7c0.7,2.7-0.2,3.3-2.2,3.5c-8.6,1.1-17.3,2.4-25.9,3.7
	c-1.6,0.3-2-0.6-1.9-1.7c0.1-1.1-1.2-2.8,1.3-3.2c9.1-1.3,18.2-2.8,27.3-4.3C77.9,100.2,76.4,102.3,76.6,102.7z M49.3,108.3
	c8.1-1.2,16.5-2.4,24.8-3.6c0.9-0.1,1.3-0.5,1.2-1.5c-0.1-1.2-1-0.9-1.7-0.8c-6.1,0.9-12.1,1.8-18.2,2.8c-2.1,0.3-4.3,0.6-6.4,1
	c-0.7,0.1-1.3,0.3-1.2,1.3C48,108.2,48.3,108.6,49.3,108.3z"/>
<path fill="#356597" stroke="#356597" stroke-miterlimit="10" d="M111.7,31.3c-0.1,0.6-0.6,0.8-1.1,1.1c-5.7,3.1-11.4,6.2-17.1,9.3
	c-0.5,0.3-1.1,0.8-1.5,0.2c-0.6-0.9,0.4-1.1,0.9-1.4c5.7-3.1,11.4-6.2,17-9.3c0.4-0.2,0.9-0.3,1.4-0.4
	C111.4,30.8,111.6,31.1,111.7,31.3z"/>
<path fill="#356597" stroke="#356597" stroke-miterlimit="10" d="M6.1,30.9c0.4,0.2,0.9,0.4,1.3,0.7c5.3,2.9,10.6,5.8,16,8.8
	c0.6,0.3,1.8,0.6,1.3,1.4c-0.4,0.8-1.3,0.1-2-0.2c-5.3-2.9-10.7-5.8-16-8.7c-0.6-0.3-1.5-0.6-1.2-1.6C5.6,31,5.7,30.7,6.1,30.9z"/>
<path fill="#356597" stroke="#356597" stroke-miterlimit="10" d="M36.3,8c1.1-0.1,1.2,0.6,1.5,1.1c2.4,5.4,4.9,10.7,7.3,16.1
	c0.2,0.5,0.7,1.1-0.1,1.5c-0.8,0.4-1-0.4-1.2-0.9c-2.5-5.5-5-11-7.5-16.6C36,8.7,35.7,8.2,36.3,8z"/>
<path fill="#356597" stroke="#356597" stroke-miterlimit="10" d="M80.6,8.6C80.4,9,80.2,9.5,80,9.9c-2.3,5.1-4.6,10.3-7,15.4
	c-0.3,0.6-0.4,1.8-1.3,1.4c-1-0.4-0.2-1.3,0.1-1.9c2.3-5.2,4.7-10.4,7-15.6c0.3-0.6,0.5-1.3,1.4-1.1C80.4,8.1,80.7,8.2,80.6,8.6z"/>
</svg>
