<?xml version="1.0" encoding="utf-8"?>
<!-- Generator: Adobe Illustrator 27.8.0, SVG Export Plug-In . SVG Version: 6.00 Build 0)  -->
<svg version="1.1" id="Layer_1" xmlns="http://www.w3.org/2000/svg" xmlns:xlink="http://www.w3.org/1999/xlink" x="0px" y="0px"
	 width="330px" height="280px" viewBox="0 0 330 280" style="enable-background:new 0 0 330 280;" xml:space="preserve">
<style type="text/css">
	.st0{fill:#356597;}
</style>
<g>
	<path class="st0" d="M160.3,3.8c25.1,0,49.8,2.8,73.4,12c7.4,2.9,14.5,6.5,21.3,10.7c16.3,9.9,24.9,25.5,30.3,43.2
		c6.7,22,8.5,44.6,7,67.5c-1.1,16.2-4.1,31.9-9.7,47.2c-8,22-23.8,36-45.1,44.5c-21.5,8.7-43.9,12.2-66.9,13.1
		c-2.7,0.1-5.5-0.2-8.1,0.3c-3.2,0.6-6.5,1.4-9.2,3.1c-11.3,7.2-22.5,14.7-33.6,22.3c-14.8,10.2-32.3,4.6-38.9-8.1
		c-2.4-4.7-3.3-10.4-4.4-15.7c-1.3-5.9-2-11.8-3.1-17.7c-0.2-1-0.8-2.2-1.6-2.6c-20.6-11-31.6-29.1-37.5-50.9
		c-5.7-21-7.3-42.3-5.9-64c1.2-17.8,4.6-35,11.5-51.5C48,37.7,63,25.5,82,17.5c24.1-10,49.3-13.5,75.2-13.8
		C158.3,3.8,159.3,3.8,160.3,3.8z M173.5,169.2c0-1.1,0-1.9,0-2.7c0-16.5,0-32.9,0-49.4c0-8.4-5.4-13.7-13.8-13.8
		c-4.5,0-8.9-0.1-13.4,0.1c-6.9,0.3-12.2,5.6-12.6,12.6c-0.4,6.5,4.5,12.6,11.1,13.6c0.7,0.1,1.4,0.2,2.1,0.4c0,13.2,0,26.3,0,39.4
		c-1,0.2-1.9,0.4-2.8,0.6c-6.3,1.4-10.9,7.3-10.4,13.6c0.5,6.8,5.7,12.4,12.3,12.5c9.4,0.2,18.9,0.2,28.3,0
		c6.5-0.1,11.5-5.2,12.4-11.8c0.8-5.9-3.2-12.1-9.1-14C176.4,169.7,175,169.5,173.5,169.2z M160.3,86.5c9.1,0,16.6-7.5,16.6-16.6
		c0-9.2-7.4-16.4-16.6-16.5c-9.1,0-16.6,7.4-16.6,16.5C143.6,79,151.2,86.5,160.3,86.5z"/>
</g>
</svg>
