<?xml version="1.0" encoding="utf-8"?>
<!-- Generator: Adobe Illustrator 27.8.0, SVG Export Plug-In . SVG Version: 6.00 Build 0)  -->
<svg version="1.1" id="Layer_1" xmlns="http://www.w3.org/2000/svg" xmlns:xlink="http://www.w3.org/1999/xlink" x="0px" y="0px"
	 width="200px" height="180px" viewBox="0 0 200 180" enable-background="new 0 0 200 180" xml:space="preserve">
<g>
	<path fill="#FF0013" d="M17.1,136c0-20,0-40,0-59.9c0.6,0,1.3,0.1,1.9,0.1c54,0,108,0,162,0c0.6,0,1.3,0,2,0c0,0.5,0,0.8,0,1.2
		c0,18.1,0,36.2,0,54.3c0,1.8-0.1,3.6-0.4,5.3c-3,17-16.9,29.1-34.1,29.1c-32.2,0.1-64.5,0.1-96.7,0c-16.5-0.1-30.1-11.1-33.8-27.2
		C17.6,137.9,17.3,136.9,17.1,136z M71.3,105.5c-1.3,1.3-2.5,2.4-3.6,3.6c-2.9,3-3,7.2-0.2,10c2.8,2.8,7,2.7,10-0.2
		c1.2-1.2,2.2-2.5,3.4-3.8c1.4,1.4,2.4,2.6,3.6,3.7c3.1,3,7.3,3.1,10.1,0.3c2.8-2.8,2.7-7.1-0.4-10.1c-1.1-1.1-2.4-2.1-3.6-3.3
		c1.5-1.5,2.7-2.6,3.8-3.7c2.8-2.9,2.9-7.1,0.2-9.9c-2.8-2.8-7-2.8-10,0.1c-1.2,1.2-2.3,2.4-3.6,3.8c-1.3-1.4-2.5-2.7-3.7-3.9
		c-2.8-2.7-7-2.7-9.7-0.1c-2.7,2.7-2.8,6.9-0.1,9.7C68.6,103,69.9,104.1,71.3,105.5z M128.7,105.6c1.3-1.3,2.4-2.4,3.5-3.5
		c3-3.1,3.2-7.3,0.4-10.1c-2.8-2.8-7-2.7-10.1,0.3c-1.1,1.1-2.2,2.4-3.3,3.6c-1.4-1.4-2.5-2.5-3.6-3.6c-3.1-3-7.3-3.2-10.1-0.3
		c-2.8,2.8-2.7,7.1,0.3,10.1c1.1,1.1,2.4,2.1,3.7,3.2c-1.5,1.5-2.7,2.6-3.9,3.8c-2.8,2.9-2.9,7.1-0.2,9.9c2.8,2.8,7,2.8,10-0.1
		c1.2-1.2,2.3-2.4,3.5-3.7c1.4,1.4,2.6,2.7,3.8,3.9c2.9,2.7,7,2.8,9.8,0.1c2.8-2.7,2.8-6.9,0-9.9C131.3,108,130.1,106.9,128.7,105.6
		z M100.1,131.4c-6.9-0.1-13.5,1.5-19.9,4c-3,1.1-4.8,4.2-4.4,7.2c0.7,4.6,4.8,7,9.4,5.7c4-1.2,8-2.3,12.1-2.9
		c6.1-0.8,12,0.8,17.7,2.8c3.7,1.3,7.5-0.6,8.8-4.2c1.3-3.5-0.4-7.3-4-8.7C113.4,132.9,106.9,131.4,100.1,131.4z"/>
	<path fill="#FF0013" d="M17.1,62.4c0-6,0-12.1,0-18.1c0.3-1.1,0.6-2.1,0.8-3.2C21.6,25,35.3,14,51.8,13.9c32.1-0.1,64.3,0,96.4,0
		c2.1,0,4.2,0.2,6.3,0.6c14.5,2.3,26.7,15.1,28.1,29.7c0.5,5.6,0.3,11.3,0.4,17c0,0.4-0.1,0.7-0.1,1.2c-0.8,0-1.4,0-2,0
		c-53.9,0-107.9,0-161.8,0C18.3,62.4,17.7,62.4,17.1,62.4z M37.8,38.1c0,5.7,4.6,10.4,10.3,10.5c5.7,0,10.3-4.6,10.4-10.2
		c0.1-5.7-4.5-10.5-10.2-10.5C42.5,27.7,37.8,32.3,37.8,38.1z M86.1,38.1c0-5.8-4.6-10.4-10.4-10.4c-5.6,0-10.3,4.6-10.3,10.3
		c-0.1,5.7,4.7,10.4,10.4,10.4C81.5,48.5,86.1,43.9,86.1,38.1z"/>
</g>
</svg>
