<?xml version="1.0" encoding="utf-8"?>
<!-- Generator: Adobe Illustrator 27.8.0, SVG Export Plug-In . SVG Version: 6.00 Build 0)  -->
<svg version="1.1" id="Layer_1" xmlns="http://www.w3.org/2000/svg" xmlns:xlink="http://www.w3.org/1999/xlink" x="0px" y="0px"
	 width="330px" height="280px" viewBox="0 0 330 280" style="enable-background:new 0 0 330 280;" xml:space="preserve">
<style type="text/css">
	.st0{fill:#356597;}
</style>
<g>
	<path class="st0" d="M133,267.8c-36.4,0-72.8,0.1-109.3-0.1c-3.5,0-7.3-0.7-10.4-2.3c-7.9-4-10.3-13.7-5.7-22
		c7.8-13.9,15.7-27.7,23.6-41.5c11.2-19.6,22.3-39.1,33.6-58.6c1.4-2.5,1.5-4.2,0.1-6.7c-19-33-37.9-66.2-56.8-99.4
		c-5.5-9.7-2-20.5,7.9-24c2.1-0.7,4.4-1,6.6-1.1c73.7-0.1,147.4,0,221.1,0c7,0,12.1,3,15.6,9.1c20.9,36.6,41.8,73.2,62.8,109.9
		c3.4,5.9,3.4,11.8,0,17.7c-20.9,36.6-41.9,73.2-62.8,109.9c-3.7,6.6-9.3,9.2-16.7,9.2C206.1,267.8,169.6,267.8,133,267.8z
		 M49,235.6c0.7,0.1,1,0.2,1.2,0.2c61,0,122,0,183,0.1c2.1,0,3-0.9,3.9-2.6c17.1-29.9,34.2-59.9,51.3-89.7c1.5-2.5,1.6-4.4,0.1-7
		c-17.1-29.6-34.1-59.3-50.9-89.1c-1.4-2.5-3-3.3-5.8-3.3c-59.6,0.1-119.2,0.1-178.9,0.1c-1.2,0-2.4,0-4,0c0.8,1.5,1.4,2.6,2,3.6
		c15.7,27.5,31.4,55.1,47.3,82.6c3.7,6.5,3.8,12.6,0,19C93,158.3,88,167.2,83,176C71.7,195.7,60.4,215.5,49,235.6z"/>
</g>
</svg>
